<svg class="poloto" width="1200" height="800" viewBox="0 0 1200 750" xmlns="http://www.w3.org/2000/svg">
	<style>
.poloto{
  stroke-linecap:round;
  stroke-linejoin:round;
  font-family:Roboto,sans-serif;
  font-size:16px;
}
.poloto_background{fill:AliceBlue;}
.poloto_scatter{stroke-width:7}
.poloto_line{stroke-width:2}
.poloto_text{fill: black;}
.poloto_name{font-size:24px;dominant-baseline:start;text-anchor:middle;}
.poloto_where{dominant-baseline:middle;text-anchor:start}
.poloto_text.poloto_legend{font-size:20px;dominant-baseline:middle;text-anchor:start;}
.poloto_text.poloto_ticks.poloto_y{dominant-baseline:middle;text-anchor:end}
.poloto_text.poloto_ticks.poloto_x{dominant-baseline:start;text-anchor:middle}
.poloto_imgs.poloto_ticks{stroke: black;stroke-width:3;fill:none;stroke-dasharray:none}
.poloto_grid{stroke:gray;stroke-width:0.5}

.poloto0.poloto_stroke{stroke:blue;}
.poloto1.poloto_stroke{stroke:red;}
.poloto2.poloto_stroke{stroke:green;}
.poloto3.poloto_stroke{stroke:gold;}
.poloto4.poloto_stroke{stroke:aqua;}
.poloto5.poloto_stroke{stroke:lime;}
.poloto6.poloto_stroke{stroke:orange;}
.poloto7.poloto_stroke{stroke:chocolate;}
.poloto0.poloto_fill{fill:blue;}
.poloto1.poloto_fill{fill:red;}
.poloto2.poloto_fill{fill:green;}
.poloto3.poloto_fill{fill:gold;}
.poloto4.poloto_fill{fill:aqua;}
.poloto5.poloto_fill{fill:lime;}
.poloto6.poloto_fill{fill:orange;}
.poloto7.poloto_fill{fill:chocolate;}
	</style>
	<circle r="1e5" class="poloto_background"></circle>
	<g id="poloto_plot0" class="poloto_plot poloto_imgs poloto_line poloto0 poloto_stroke" fill="none" stroke="black">
		<path d=" M 150.00 583.89 L 150.43 639.42 L 150.86 569.35 L 151.29 628.85 L 151.72 597.11 L 152.16 562.74 L 152.59 562.74 L 153.02 607.69 L 153.45 558.77 L 153.88 569.35 L 154.31 583.89 L 154.74 615.62 L 155.17 579.93 L 155.60 590.50 L 156.03 548.20 L 156.47 512.50 L 156.90 531.01 L 157.33 541.59 L 157.76 531.01 L 158.19 562.74 L 158.62 537.62 L 159.05 552.16 L 159.48 579.93 L 159.91 523.08 L 160.34 558.77 L 160.78 523.08 L 161.21 523.08 L 161.64 579.93 L 162.07 562.74 L 162.50 537.62 L 162.93 579.93 L 163.36 548.20 L 163.79 569.35 L 164.22 523.08 L 164.66 552.16 L 165.09 531.01 L 165.52 579.93 L 166.38 607.69 L 166.81 552.16 L 167.24 527.04 L 167.67 541.59 L 168.10 548.20 L 168.53 579.93 L 168.97 569.35 L 169.40 562.74 L 169.83 548.20 L 170.26 516.47 L 170.69 583.89 L 171.12 512.50 L 171.55 594.47 L 171.98 527.04 L 172.41 650.00 L 172.84 531.01 L 173.28 607.69 L 173.71 569.35 L 174.14 523.08 L 174.57 573.32 L 175.00 548.20 L 175.43 573.32 L 175.86 541.59 L 176.29 552.16 L 176.72 548.20 L 177.16 548.20 L 177.59 548.20 L 178.02 541.59 L 178.45 548.20 L 178.88 548.20 L 179.31 512.50 L 179.74 495.31 L 180.17 552.16 L 180.60 537.62 L 181.03 523.08 L 181.47 537.62 L 181.90 531.01 L 182.33 495.31 L 182.76 531.01 L 183.19 516.47 L 183.62 527.04 L 184.05 597.11 L 184.48 531.01 L 184.91 531.01 L 185.34 531.01 L 185.78 523.08 L 186.21 531.01 L 186.64 523.08 L 187.07 552.16 L 187.50 501.92 L 188.36 527.04 L 188.79 523.08 L 189.22 562.74 L 189.66 505.89 L 190.09 548.20 L 190.52 512.50 L 190.95 527.04 L 191.38 512.50 L 191.81 552.16 L 192.24 579.93 L 192.67 516.47 L 193.10 512.50 L 193.53 541.59 L 193.97 491.35 L 194.40 531.01 L 194.83 512.50 L 195.26 537.62 L 195.69 523.08 L 196.12 541.59 L 196.55 512.50 L 196.98 573.32 L 197.41 590.50 L 197.84 573.32 L 198.28 531.01 L 198.71 552.16 L 199.14 562.74 L 199.57 501.92 L 200.00 531.01 L 200.43 573.32 L 200.86 527.04 L 201.29 541.59 L 201.72 523.08 L 202.16 552.16 L 202.59 552.16 L 203.02 537.62 L 203.45 558.77 L 203.88 597.11 L 204.31 562.74 L 204.74 537.62 L 205.17 573.32 L 205.60 558.77 L 206.03 512.50 L 206.47 548.20 L 206.90 548.20 L 207.33 537.62 L 207.76 618.27 L 208.19 531.01 L 208.62 607.69 L 209.05 569.35 L 209.48 594.47 L 210.34 573.32 L 210.78 639.42 L 211.21 527.04 L 211.64 541.59 L 212.07 579.93 L 212.50 527.04 L 212.93 523.08 L 213.36 594.47 L 213.79 558.77 L 214.22 573.32 L 214.66 541.59 L 215.09 527.04 L 215.52 548.20 L 215.95 573.32 L 216.38 579.93 L 216.81 548.20 L 217.24 579.93 L 217.67 523.08 L 218.10 607.69 L 218.53 562.74 L 218.97 527.04 L 219.40 558.77 L 219.83 523.08 L 220.26 583.89 L 220.69 569.35 L 221.12 594.47 L 221.55 548.20 L 221.98 552.16 L 222.41 573.32 L 222.84 573.32 L 223.28 569.35 L 223.71 594.47 L 224.14 569.35 L 224.57 569.35 L 225.00 562.74 L 225.43 562.74 L 225.86 562.74 L 226.29 552.16 L 226.72 558.77 L 227.16 583.89 L 227.59 552.16 L 228.02 594.47 L 228.45 558.77 L 228.88 615.62 L 229.31 552.16 L 229.74 552.16 L 230.17 573.32 L 230.60 537.62 L 231.03 590.50 L 231.47 537.62 L 232.33 562.74 L 232.76 562.74 L 233.19 562.74 L 233.62 562.74 L 234.05 531.01 L 234.48 583.89 L 234.91 523.08 L 235.34 552.16 L 235.78 527.04 L 236.21 523.08 L 236.64 531.01 L 237.07 541.59 L 237.50 541.59 L 237.93 505.89 L 238.36 523.08 L 238.79 523.08 L 239.22 527.04 L 239.66 548.20 L 240.09 501.92 L 240.52 527.04 L 240.95 548.20 L 241.38 562.74 L 241.81 523.08 L 242.24 505.89 L 242.67 531.01 L 243.10 505.89 L 243.53 495.31 L 243.97 527.04 L 244.40 512.50 L 244.83 516.47 L 245.26 495.31 L 245.69 527.04 L 246.12 615.62 L 246.55 512.50 L 246.98 516.47 L 247.41 491.35 L 247.84 512.50 L 248.28 505.89 L 248.71 541.59 L 249.14 594.47 L 249.57 541.59 L 250.00 562.74 L 250.43 537.62 L 250.86 558.77 L 251.29 548.20 L 251.72 531.01 L 252.16 537.62 L 252.59 562.74 L 253.02 594.47 L 253.45 505.89 L 254.31 516.47 L 254.74 562.74 L 255.17 537.62 L 255.60 491.35 L 256.03 523.08 L 256.47 516.47 L 256.90 579.93 L 257.33 541.59 L 257.76 527.04 L 258.19 523.08 L 258.62 527.04 L 259.05 505.89 L 259.48 531.01 L 259.91 569.35 L 260.34 552.16 L 260.78 512.50 L 261.21 523.08 L 261.64 516.47 L 262.07 583.89 L 262.50 527.04 L 262.93 516.47 L 263.36 505.89 L 263.79 537.62 L 264.22 531.01 L 264.66 552.16 L 265.09 552.16 L 265.52 548.20 L 265.95 505.89 L 266.38 548.20 L 266.81 495.31 L 267.24 516.47 L 267.67 501.92 L 268.10 501.92 L 268.53 516.47 L 268.97 573.32 L 269.40 505.89 L 269.83 541.59 L 270.26 548.20 L 270.69 505.89 L 271.12 523.08 L 271.55 548.20 L 271.98 523.08 L 272.41 523.08 L 272.84 523.08 L 273.28 505.89 L 273.71 541.59 L 274.14 541.59 L 274.57 505.89 L 275.00 541.59 L 275.43 505.89 L 276.29 541.59 L 276.72 579.93 L 277.16 548.20 L 277.59 523.08 L 278.02 516.47 L 278.45 516.47 L 278.88 552.16 L 279.31 516.47 L 279.74 537.62 L 280.17 569.35 L 280.60 541.59 L 281.03 583.89 L 281.47 501.92 L 281.90 558.77 L 282.33 523.08 L 282.76 531.01 L 283.19 512.50 L 283.62 531.01 L 284.05 552.16 L 284.48 594.47 L 284.91 552.16 L 285.34 590.50 L 285.78 569.35 L 286.21 552.16 L 286.64 562.74 L 287.07 548.20 L 287.50 562.74 L 287.93 552.16 L 288.36 531.01 L 288.79 562.74 L 289.22 558.77 L 289.66 501.92 L 290.09 516.47 L 290.52 579.93 L 290.95 562.74 L 291.38 562.74 L 291.81 512.50 L 292.24 552.16 L 292.67 527.04 L 293.10 523.08 L 293.53 558.77 L 293.97 558.77 L 294.40 552.16 L 294.83 537.62 L 295.26 516.47 L 295.69 523.08 L 296.12 537.62 L 296.55 523.08 L 296.98 537.62 L 297.41 516.47 L 298.28 558.77 L 298.71 501.92 L 299.14 495.31 L 299.57 495.31 L 300.00 523.08 L 300.43 558.77 L 300.86 579.93 L 301.29 562.74 L 301.72 558.77 L 302.16 516.47 L 302.59 569.35 L 303.02 527.04 L 303.45 512.50 L 303.88 537.62 L 304.31 495.31 L 304.74 505.89 L 305.17 558.77 L 305.60 516.47 L 306.03 552.16 L 306.47 541.59 L 306.90 491.35 L 307.33 523.08 L 307.76 573.32 L 308.19 531.01 L 308.62 558.77 L 309.05 527.04 L 309.48 523.08 L 309.91 527.04 L 310.34 501.92 L 310.78 548.20 L 311.21 548.20 L 311.64 523.08 L 312.07 523.08 L 312.50 523.08 L 312.93 516.47 L 313.36 548.20 L 313.79 523.08 L 314.22 541.59 L 314.66 505.89 L 315.09 505.89 L 315.52 495.31 L 315.95 541.59 L 316.38 505.89 L 316.81 505.89 L 317.24 505.89 L 317.67 531.01 L 318.10 516.47 L 318.53 541.59 L 318.97 505.89 L 319.40 537.62 L 320.26 548.20 L 320.69 541.59 L 321.12 541.59 L 321.55 531.01 L 321.98 523.08 L 322.41 552.16 L 322.84 516.47 L 323.28 516.47 L 323.71 484.74 L 324.14 495.31 L 324.57 501.92 L 325.00 505.89 L 325.43 470.19 L 325.86 558.77 L 326.29 505.89 L 326.72 495.31 L 327.16 523.08 L 327.59 495.31 L 328.02 548.20 L 328.45 527.04 L 328.88 527.04 L 329.31 531.01 L 329.74 527.04 L 330.17 562.74 L 330.60 523.08 L 331.03 531.01 L 331.47 573.32 L 331.90 541.59 L 332.33 597.11 L 332.76 569.35 L 333.19 607.69 L 333.62 569.35 L 334.05 562.74 L 334.48 590.50 L 334.91 573.32 L 335.34 537.62 L 335.78 562.74 L 336.21 548.20 L 336.64 552.16 L 337.07 558.77 L 337.50 548.20 L 337.93 527.04 L 338.36 512.50 L 338.79 562.74 L 339.22 558.77 L 339.66 552.16 L 340.09 527.04 L 340.52 590.50 L 340.95 569.35 L 341.38 558.77 L 342.24 558.77 L 342.67 495.31 L 343.10 573.32 L 343.53 558.77 L 343.97 594.47 L 344.40 537.62 L 344.83 558.77 L 345.26 573.32 L 345.69 558.77 L 346.12 562.74 L 346.55 548.20 L 346.98 590.50 L 347.41 605.05 L 347.84 569.35 L 348.28 594.47 L 348.71 583.89 L 349.14 527.04 L 349.57 548.20 L 350.00 597.11 L 350.43 569.35 L 350.86 569.35 L 351.29 537.62 L 351.72 552.16 L 352.16 512.50 L 352.59 516.47 L 353.02 548.20 L 353.45 531.01 L 353.88 491.35 L 354.31 573.32 L 354.74 516.47 L 355.17 505.89 L 355.60 516.47 L 356.03 558.77 L 356.47 537.62 L 356.90 562.74 L 357.33 516.47 L 357.76 537.62 L 358.19 562.74 L 358.62 527.04 L 359.05 562.74 L 359.48 523.08 L 359.91 480.77 L 360.34 512.50 L 360.78 512.50 L 361.21 495.31 L 361.64 523.08 L 362.07 505.89 L 362.50 495.31 L 362.93 501.92 L 363.36 495.31 L 364.22 501.92 L 364.66 501.92 L 365.09 495.31 L 365.52 484.74 L 365.95 516.47 L 366.38 505.89 L 366.81 480.77 L 367.24 523.08 L 367.67 495.31 L 368.10 523.08 L 368.53 484.74 L 368.97 516.47 L 369.40 541.59 L 369.83 491.35 L 370.26 495.31 L 370.69 505.89 L 371.12 495.31 L 371.55 484.74 L 371.98 516.47 L 372.41 516.47 L 372.84 516.47 L 373.28 548.20 L 373.71 523.08 L 374.14 527.04 L 374.57 516.47 L 375.00 495.31 L 375.43 531.01 L 375.86 505.89 L 376.29 523.08 L 376.72 516.47 L 377.16 501.92 L 377.59 516.47 L 378.02 501.92 L 378.45 495.31 L 378.88 512.50 L 379.31 474.16 L 379.74 516.47 L 380.17 527.04 L 380.60 474.16 L 381.03 512.50 L 381.47 527.04 L 381.90 491.35 L 382.33 501.92 L 382.76 523.08 L 383.19 505.89 L 383.62 516.47 L 384.05 505.89 L 384.48 491.35 L 384.91 484.74 L 385.34 505.89 L 386.21 523.08 L 386.64 501.92 L 387.07 531.01 L 387.50 501.92 L 387.93 501.92 L 388.36 505.89 L 388.79 505.89 L 389.22 531.01 L 389.66 531.01 L 390.09 495.31 L 390.52 523.08 L 390.95 541.59 L 391.38 512.50 L 391.81 480.77 L 392.24 541.59 L 392.67 537.62 L 393.10 531.01 L 393.53 523.08 L 393.97 516.47 L 394.40 495.31 L 394.83 527.04 L 395.26 491.35 L 395.69 491.35 L 396.12 501.92 L 396.55 512.50 L 396.98 495.31 L 397.41 537.62 L 397.84 495.31 L 398.28 537.62 L 398.71 527.04 L 399.14 527.04 L 399.57 531.01 L 400.00 569.35 L 400.43 537.62 L 400.86 562.74 L 401.29 548.20 L 401.72 505.89 L 402.16 491.35 L 402.59 548.20 L 403.02 531.01 L 403.45 523.08 L 403.88 541.59 L 404.31 531.01 L 404.74 505.89 L 405.17 552.16 L 405.60 527.04 L 406.03 558.77 L 406.47 537.62 L 406.90 562.74 L 407.33 501.92 L 408.19 531.01 L 408.62 505.89 L 409.05 523.08 L 409.48 541.59 L 409.91 548.20 L 410.34 531.01 L 410.78 537.62 L 411.21 541.59 L 411.64 495.31 L 412.07 512.50 L 412.50 505.89 L 412.93 516.47 L 413.36 480.77 L 413.79 541.59 L 414.22 531.01 L 414.66 516.47 L 415.09 495.31 L 415.52 495.31 L 415.95 474.16 L 416.38 512.50 L 416.81 505.89 L 417.24 480.77 L 417.67 495.31 L 418.10 537.62 L 418.53 480.77 L 418.97 501.92 L 419.40 512.50 L 419.83 484.74 L 420.26 484.74 L 420.69 491.35 L 421.12 484.74 L 421.55 484.74 L 421.98 491.35 L 422.41 480.77 L 422.84 512.50 L 423.28 474.16 L 423.71 480.77 L 424.14 480.77 L 424.57 512.50 L 425.00 516.47 L 425.43 495.31 L 425.86 463.58 L 426.29 501.92 L 426.72 480.77 L 427.16 470.19 L 427.59 480.77 L 428.02 484.74 L 428.45 484.74 L 428.88 491.35 L 429.31 484.74 L 430.17 501.92 L 430.60 501.92 L 431.03 505.89 L 431.47 446.39 L 431.90 484.74 L 432.33 491.35 L 432.76 484.74 L 433.19 491.35 L 433.62 484.74 L 434.05 512.50 L 434.48 470.19 L 434.91 463.58 L 435.34 495.31 L 435.78 463.58 L 436.21 484.74 L 436.64 505.89 L 437.07 491.35 L 437.50 470.19 L 437.93 501.92 L 438.36 491.35 L 438.79 480.77 L 439.22 505.89 L 439.66 480.77 L 440.09 531.01 L 440.52 456.97 L 440.95 491.35 L 441.38 491.35 L 441.81 484.74 L 442.24 474.16 L 442.67 505.89 L 443.10 516.47 L 443.53 470.19 L 443.97 484.74 L 444.40 470.19 L 444.83 484.74 L 445.26 505.89 L 445.69 484.74 L 446.12 501.92 L 446.55 484.74 L 446.98 474.16 L 447.41 480.77 L 447.84 463.58 L 448.28 456.97 L 448.71 459.61 L 449.14 501.92 L 449.57 495.31 L 450.00 505.89 L 450.43 505.89 L 450.86 484.74 L 451.29 495.31 L 452.16 470.19 L 452.59 512.50 L 453.02 505.89 L 453.45 512.50 L 453.88 505.89 L 454.31 512.50 L 454.74 512.50 L 455.17 541.59 L 455.60 495.31 L 456.03 505.89 L 456.47 491.35 L 456.90 523.08 L 457.33 495.31 L 457.76 495.31 L 458.19 562.74 L 458.62 537.62 L 459.05 501.92 L 459.48 512.50 L 459.91 523.08 L 460.34 548.20 L 460.78 501.92 L 461.21 548.20 L 461.64 552.16 L 462.07 548.20 L 462.50 548.20 L 462.93 505.89 L 463.36 569.35 L 463.79 516.47 L 464.22 512.50 L 464.66 527.04 L 465.09 579.93 L 465.52 531.01 L 465.95 537.62 L 466.38 558.77 L 466.81 537.62 L 467.24 615.62 L 467.67 573.32 L 468.10 527.04 L 468.53 548.20 L 468.97 558.77 L 469.40 501.92 L 469.83 579.93 L 470.26 541.59 L 470.69 552.16 L 471.12 548.20 L 471.55 537.62 L 471.98 537.62 L 472.41 569.35 L 472.84 562.74 L 473.28 527.04 L 474.14 548.20 L 474.57 516.47 L 475.00 548.20 L 475.43 573.32 L 475.86 531.01 L 476.29 558.77 L 476.72 523.08 L 477.16 531.01 L 477.59 501.92 L 478.02 537.62 L 478.45 523.08 L 478.88 512.50 L 479.31 512.50 L 479.74 569.35 L 480.17 516.47 L 480.60 501.92 L 481.03 505.89 L 481.47 527.04 L 481.90 484.74 L 482.33 501.92 L 482.76 537.62 L 483.19 512.50 L 483.62 505.89 L 484.05 491.35 L 484.48 505.89 L 484.91 523.08 L 485.34 495.31 L 485.78 548.20 L 486.21 531.01 L 486.64 480.77 L 487.07 516.47 L 487.50 491.35 L 487.93 512.50 L 488.36 527.04 L 488.79 523.08 L 489.22 505.89 L 489.66 474.16 L 490.09 484.74 L 490.52 484.74 L 490.95 495.31 L 491.38 470.19 L 491.81 484.74 L 492.24 505.89 L 492.67 484.74 L 493.10 463.58 L 493.53 480.77 L 493.97 449.04 L 494.40 474.16 L 494.83 463.58 L 495.26 470.19 L 496.12 470.19 L 496.55 459.61 L 496.98 446.39 L 497.41 480.77 L 497.84 470.19 L 498.28 459.61 L 498.71 427.88 L 499.14 425.24 L 499.57 456.97 L 500.00 438.46 L 500.43 456.97 L 500.86 446.39 L 501.29 438.46 L 501.72 470.19 L 502.16 449.04 L 502.59 438.46 L 503.02 449.04 L 503.45 438.46 L 503.88 427.88 L 504.31 425.24 L 504.74 402.76 L 505.17 402.76 L 505.60 446.39 L 506.03 456.97 L 506.47 425.24 L 506.90 446.39 L 507.33 470.19 L 507.76 410.70 L 508.19 385.58 L 508.62 413.34 L 509.05 449.04 L 509.48 413.34 L 509.91 446.39 L 510.34 438.46 L 510.78 427.88 L 511.21 425.24 L 511.64 438.46 L 512.07 396.15 L 512.50 413.34 L 512.93 402.76 L 513.36 425.24 L 513.79 446.39 L 514.22 435.82 L 514.66 389.54 L 515.09 438.46 L 515.52 413.34 L 515.95 438.46 L 516.38 425.24 L 516.81 438.46 L 517.24 427.88 L 518.10 410.70 L 518.53 413.34 L 518.97 446.39 L 519.40 474.16 L 519.83 463.58 L 520.26 449.04 L 520.69 470.19 L 521.12 438.46 L 521.55 459.61 L 521.98 438.46 L 522.41 438.46 L 522.84 446.39 L 523.28 446.39 L 523.71 446.39 L 524.14 427.88 L 524.57 459.61 L 525.00 400.12 L 525.43 446.39 L 525.86 410.70 L 526.29 425.24 L 526.72 427.88 L 527.16 435.82 L 527.59 413.34 L 528.02 400.12 L 528.45 425.24 L 528.88 413.34 L 529.31 438.46 L 529.74 413.34 L 530.17 410.70 L 530.60 402.76 L 531.03 402.76 L 531.47 425.24 L 531.90 410.70 L 532.33 410.70 L 532.76 389.54 L 533.19 438.46 L 533.62 402.76 L 534.05 402.76 L 534.48 402.76 L 534.91 385.58 L 535.34 413.34 L 535.78 413.34 L 536.21 425.24 L 536.64 446.39 L 537.07 435.82 L 537.50 438.46 L 537.93 425.24 L 538.36 446.39 L 538.79 435.82 L 539.22 446.39 L 540.09 396.15 L 540.52 449.04 L 540.95 389.54 L 541.38 385.58 L 541.81 410.70 L 542.24 402.76 L 542.67 400.12 L 543.10 389.54 L 543.53 446.39 L 543.97 402.76 L 544.40 402.76 L 544.83 435.82 L 545.26 425.24 L 545.69 400.12 L 546.12 396.15 L 546.55 427.88 L 546.98 400.12 L 547.41 410.70 L 547.84 456.97 L 548.28 389.54 L 548.71 400.12 L 549.14 410.70 L 549.57 378.97 L 550.00 389.54 L 550.43 389.54 L 550.86 385.58 L 551.29 400.12 L 551.72 389.54 L 552.16 328.73 L 552.59 378.97 L 553.02 343.27 L 553.45 357.81 L 553.88 368.39 L 554.31 378.97 L 554.74 378.97 L 555.17 389.54 L 555.60 343.27 L 556.03 368.39 L 556.47 322.11 L 556.90 402.76 L 557.33 435.82 L 557.76 385.58 L 558.19 375.00 L 558.62 389.54 L 559.05 413.34 L 559.48 413.34 L 559.91 410.70 L 560.34 435.82 L 560.78 400.12 L 561.21 402.76 L 562.07 378.97 L 562.50 396.15 L 562.93 425.24 L 563.36 368.39 L 563.79 375.00 L 564.22 400.12 L 564.66 389.54 L 565.09 368.39 L 565.52 368.39 L 565.95 385.58 L 566.38 396.15 L 566.81 364.42 L 567.24 385.58 L 567.67 375.00 L 568.10 427.88 L 568.53 389.54 L 568.97 378.97 L 569.40 357.81 L 569.83 402.76 L 570.26 410.70 L 570.69 385.58 L 571.12 402.76 L 571.55 425.24 L 571.98 402.76 L 572.41 378.97 L 572.84 375.00 L 573.28 375.00 L 573.71 413.34 L 574.14 459.61 L 574.57 435.82 L 575.00 446.39 L 575.43 427.88 L 575.86 435.82 L 576.29 449.04 L 576.72 456.97 L 577.16 427.88 L 577.59 413.34 L 578.02 425.24 L 578.45 425.24 L 578.88 446.39 L 579.31 449.04 L 579.74 438.46 L 580.17 449.04 L 580.60 438.46 L 581.03 425.24 L 581.47 410.70 L 581.90 435.82 L 582.33 435.82 L 582.76 449.04 L 583.19 427.88 L 584.05 438.46 L 584.48 449.04 L 584.91 438.46 L 585.34 389.54 L 585.78 396.15 L 586.21 446.39 L 586.64 446.39 L 587.07 425.24 L 587.50 449.04 L 587.93 456.97 L 588.36 425.24 L 588.79 438.46 L 589.22 449.04 L 589.66 446.39 L 590.09 427.88 L 590.52 449.04 L 590.95 425.24 L 591.38 446.39 L 591.81 446.39 L 592.24 446.39 L 592.67 449.04 L 593.10 463.58 L 593.53 474.16 L 593.97 463.58 L 594.40 456.97 L 594.83 438.46 L 595.26 413.34 L 595.69 449.04 L 596.12 435.82 L 596.55 446.39 L 596.98 438.46 L 597.41 456.97 L 597.84 463.58 L 598.28 438.46 L 598.71 456.97 L 599.14 427.88 L 599.57 438.46 L 600.00 456.97 L 600.43 463.58 L 600.86 470.19 L 601.29 463.58 L 601.72 446.39 L 602.16 474.16 L 602.59 459.61 L 603.02 463.58 L 603.45 402.76 L 603.88 446.39 L 604.31 449.04 L 604.74 435.82 L 605.17 427.88 L 606.03 438.46 L 606.47 459.61 L 606.90 449.04 L 607.33 446.39 L 607.76 470.19 L 608.19 449.04 L 608.62 470.19 L 609.05 456.97 L 609.48 463.58 L 609.91 438.46 L 610.34 480.77 L 610.78 484.74 L 611.21 456.97 L 611.64 463.58 L 612.07 459.61 L 612.50 470.19 L 612.93 459.61 L 613.36 427.88 L 613.79 459.61 L 614.22 459.61 L 614.66 480.77 L 615.09 446.39 L 615.52 463.58 L 615.95 459.61 L 616.38 463.58 L 616.81 456.97 L 617.24 459.61 L 617.67 463.58 L 618.10 470.19 L 618.53 463.58 L 618.97 463.58 L 619.40 480.77 L 619.83 456.97 L 620.26 484.74 L 620.69 491.35 L 621.12 527.04 L 621.55 495.31 L 621.98 484.74 L 622.41 480.77 L 622.84 480.77 L 623.28 484.74 L 623.71 463.58 L 624.14 470.19 L 624.57 495.31 L 625.00 456.97 L 625.43 474.16 L 625.86 463.58 L 626.29 484.74 L 626.72 470.19 L 627.16 463.58 L 628.02 474.16 L 628.45 463.58 L 628.88 446.39 L 629.31 456.97 L 629.74 474.16 L 630.17 435.82 L 630.60 470.19 L 631.03 456.97 L 631.47 480.77 L 631.90 459.61 L 632.33 463.58 L 632.76 449.04 L 633.19 446.39 L 633.62 484.74 L 634.05 470.19 L 634.48 463.58 L 634.91 474.16 L 635.34 474.16 L 635.78 459.61 L 636.21 491.35 L 636.64 480.77 L 637.07 459.61 L 637.50 470.19 L 637.93 480.77 L 638.36 474.16 L 638.79 456.97 L 639.22 449.04 L 639.66 456.97 L 640.09 449.04 L 640.52 495.31 L 640.95 438.46 L 641.38 438.46 L 641.81 435.82 L 642.24 484.74 L 642.67 449.04 L 643.10 425.24 L 643.53 463.58 L 643.97 427.88 L 644.40 470.19 L 644.83 435.82 L 645.26 435.82 L 645.69 427.88 L 646.12 427.88 L 646.55 463.58 L 646.98 459.61 L 647.41 474.16 L 647.84 446.39 L 648.28 427.88 L 648.71 427.88 L 649.14 449.04 L 650.00 505.89 L 650.43 446.39 L 650.86 413.34 L 651.29 449.04 L 651.72 446.39 L 652.16 449.04 L 652.59 449.04 L 653.02 410.70 L 653.45 446.39 L 653.88 427.88 L 654.31 449.04 L 654.74 425.24 L 655.17 435.82 L 655.60 427.88 L 656.03 446.39 L 656.47 402.76 L 656.90 427.88 L 657.33 438.46 L 657.76 449.04 L 658.19 389.54 L 658.62 427.88 L 659.05 402.76 L 659.48 364.42 L 659.91 425.24 L 660.34 425.24 L 660.78 438.46 L 661.21 400.12 L 661.64 456.97 L 662.07 438.46 L 662.50 402.76 L 662.93 438.46 L 663.36 449.04 L 663.79 459.61 L 664.22 446.39 L 664.66 435.82 L 665.09 375.00 L 665.52 364.42 L 665.95 427.88 L 666.38 413.34 L 666.81 332.69 L 667.24 402.76 L 667.67 425.24 L 668.10 410.70 L 668.53 375.00 L 668.97 410.70 L 669.40 375.00 L 669.83 375.00 L 670.26 378.97 L 670.69 396.15 L 671.12 396.15 L 671.98 410.70 L 672.41 413.34 L 672.84 368.39 L 673.28 364.42 L 673.71 368.39 L 674.14 375.00 L 674.57 375.00 L 675.00 343.27 L 675.43 368.39 L 675.86 375.00 L 676.29 368.39 L 676.72 378.97 L 677.16 378.97 L 677.59 343.27 L 678.02 328.73 L 678.45 343.27 L 678.88 328.73 L 679.31 357.81 L 679.74 347.24 L 680.17 368.39 L 680.60 307.57 L 681.03 343.27 L 681.47 343.27 L 681.90 318.15 L 682.33 332.69 L 682.76 357.81 L 683.19 307.57 L 683.62 297.00 L 684.05 311.54 L 684.48 322.11 L 684.91 328.73 L 685.34 328.73 L 685.78 343.27 L 686.21 300.96 L 686.64 364.42 L 687.07 389.54 L 687.50 343.27 L 687.93 353.85 L 688.36 290.38 L 688.79 311.54 L 689.22 328.73 L 689.66 353.85 L 690.09 375.00 L 690.52 364.42 L 690.95 357.81 L 691.38 307.57 L 691.81 402.76 L 692.24 318.15 L 692.67 364.42 L 693.10 332.69 L 693.97 389.54 L 694.40 357.81 L 694.83 343.27 L 695.26 396.15 L 695.69 385.58 L 696.12 332.69 L 696.55 375.00 L 696.98 400.12 L 697.41 375.00 L 697.84 368.39 L 698.28 378.97 L 698.71 378.97 L 699.14 389.54 L 699.57 385.58 L 700.00 396.15 L 700.43 389.54 L 700.86 402.76 L 701.29 389.54 L 701.72 389.54 L 702.16 446.39 L 702.59 402.76 L 703.02 400.12 L 703.45 400.12 L 703.88 427.88 L 704.31 425.24 L 704.74 368.39 L 705.17 435.82 L 705.60 435.82 L 706.03 427.88 L 706.47 402.76 L 706.90 449.04 L 707.33 413.34 L 707.76 410.70 L 708.19 435.82 L 708.62 378.97 L 709.05 446.39 L 709.48 456.97 L 709.91 435.82 L 710.34 449.04 L 710.78 459.61 L 711.21 427.88 L 711.64 435.82 L 712.07 438.46 L 712.50 427.88 L 712.93 413.34 L 713.36 410.70 L 713.79 438.46 L 714.22 413.34 L 714.66 427.88 L 715.09 435.82 L 715.95 427.88 L 716.38 364.42 L 716.81 456.97 L 717.24 410.70 L 717.67 446.39 L 718.10 435.82 L 718.53 385.58 L 718.97 449.04 L 719.40 425.24 L 719.83 402.76 L 720.26 413.34 L 720.69 410.70 L 721.12 427.88 L 721.55 410.70 L 721.98 446.39 L 722.41 400.12 L 722.84 438.46 L 723.28 400.12 L 723.71 435.82 L 724.14 425.24 L 724.57 378.97 L 725.00 427.88 L 725.43 400.12 L 725.86 396.15 L 726.29 425.24 L 726.72 435.82 L 727.16 413.34 L 727.59 389.54 L 728.02 389.54 L 728.45 413.34 L 728.88 427.88 L 729.31 378.97 L 729.74 396.15 L 730.17 402.76 L 730.60 378.97 L 731.03 396.15 L 731.47 427.88 L 731.90 389.54 L 732.33 389.54 L 732.76 413.34 L 733.19 425.24 L 733.62 410.70 L 734.05 400.12 L 734.48 410.70 L 734.91 427.88 L 735.34 410.70 L 735.78 378.97 L 736.21 410.70 L 736.64 389.54 L 737.07 427.88 L 737.93 413.34 L 738.36 410.70 L 738.79 427.88 L 739.22 396.15 L 739.66 413.34 L 740.09 438.46 L 740.52 410.70 L 740.95 402.76 L 741.38 396.15 L 741.81 435.82 L 742.24 438.46 L 742.67 389.54 L 743.10 425.24 L 743.53 385.58 L 743.97 427.88 L 744.40 427.88 L 744.83 413.34 L 745.26 402.76 L 745.69 410.70 L 746.12 427.88 L 746.55 425.24 L 746.98 427.88 L 747.41 410.70 L 747.84 396.15 L 748.28 410.70 L 748.71 425.24 L 749.14 402.76 L 749.57 425.24 L 750.00 427.88 L 750.43 375.00 L 750.86 425.24 L 751.29 435.82 L 751.72 378.97 L 752.16 378.97 L 752.59 389.54 L 753.02 402.76 L 753.45 410.70 L 753.88 400.12 L 754.31 347.24 L 754.74 378.97 L 755.17 343.27 L 755.60 353.85 L 756.03 396.15 L 756.47 389.54 L 756.90 375.00 L 757.33 410.70 L 757.76 375.00 L 758.19 353.85 L 758.62 375.00 L 759.05 378.97 L 759.91 389.54 L 760.34 357.81 L 760.78 318.15 L 761.21 378.97 L 761.64 385.58 L 762.07 375.00 L 762.50 402.76 L 762.93 402.76 L 763.36 357.81 L 763.79 400.12 L 764.22 385.58 L 764.66 375.00 L 765.09 378.97 L 765.52 368.39 L 765.95 332.69 L 766.38 357.81 L 766.81 343.27 L 767.24 347.24 L 767.67 368.39 L 768.10 275.84 L 768.53 368.39 L 768.97 375.00 L 769.40 389.54 L 769.83 368.39 L 770.26 364.42 L 770.69 357.81 L 771.12 368.39 L 771.55 402.76 L 771.98 385.58 L 772.41 400.12 L 772.84 357.81 L 773.28 336.66 L 773.71 378.97 L 774.14 357.81 L 774.57 328.73 L 775.00 343.27 L 775.43 332.69 L 775.86 318.15 L 776.29 353.85 L 776.72 364.42 L 777.16 328.73 L 777.59 347.24 L 778.02 389.54 L 778.45 385.58 L 778.88 396.15 L 779.31 353.85 L 779.74 336.66 L 780.17 368.39 L 780.60 290.38 L 781.03 332.69 L 781.90 332.69 L 782.33 375.00 L 782.76 328.73 L 783.19 336.66 L 783.62 343.27 L 784.05 332.69 L 784.48 347.24 L 784.91 368.39 L 785.34 368.39 L 785.78 336.66 L 786.21 364.42 L 786.64 396.15 L 787.07 368.39 L 787.50 318.15 L 787.93 318.15 L 788.36 353.85 L 788.79 297.00 L 789.22 353.85 L 789.66 353.85 L 790.09 343.27 L 790.52 273.20 L 790.95 307.57 L 791.38 353.85 L 791.81 385.58 L 792.24 328.73 L 792.67 318.15 L 793.10 368.39 L 793.53 347.24 L 793.97 357.81 L 794.40 347.24 L 794.83 368.39 L 795.26 385.58 L 795.69 357.81 L 796.12 357.81 L 796.55 357.81 L 796.98 343.27 L 797.41 279.81 L 797.84 343.27 L 798.28 378.97 L 798.71 368.39 L 799.14 336.66 L 799.57 336.66 L 800.00 368.39 L 800.43 336.66 L 800.86 413.34 L 801.29 357.81 L 801.72 364.42 L 802.16 368.39 L 802.59 378.97 L 803.02 357.81 L 803.88 328.73 L 804.31 364.42 L 804.74 396.15 L 805.17 410.70 L 805.60 400.12 L 806.03 438.46 L 806.47 402.76 L 806.90 336.66 L 807.33 389.54 L 807.76 353.85 L 808.19 364.42 L 808.62 389.54 L 809.05 368.39 L 809.48 357.81 L 809.91 336.66 L 810.34 385.58 L 810.78 385.58 L 811.21 402.76 L 811.64 385.58 L 812.07 402.76 L 812.50 385.58 L 812.93 357.81 L 813.36 353.85 L 813.79 343.27 L 814.22 378.97 L 814.66 378.97 L 815.09 375.00 L 815.52 364.42 L 815.95 347.24 L 816.38 322.11 L 816.81 357.81 L 817.24 347.24 L 817.67 332.69 L 818.10 378.97 L 818.53 297.00 L 818.97 332.69 L 819.40 353.85 L 819.83 328.73 L 820.26 389.54 L 820.69 364.42 L 821.12 357.81 L 821.55 378.97 L 821.98 343.27 L 822.41 357.81 L 822.84 364.42 L 823.28 318.15 L 823.71 368.39 L 824.14 336.66 L 824.57 357.81 L 825.00 357.81 L 825.86 368.39 L 826.29 322.11 L 826.72 353.85 L 827.16 343.27 L 827.59 336.66 L 828.02 300.96 L 828.45 318.15 L 828.88 347.24 L 829.31 322.11 L 829.74 311.54 L 830.17 332.69 L 830.60 332.69 L 831.03 311.54 L 831.47 336.66 L 831.90 279.81 L 832.33 332.69 L 832.76 328.73 L 833.19 322.11 L 833.62 347.24 L 834.05 290.38 L 834.48 353.85 L 834.91 364.42 L 835.34 336.66 L 835.78 322.11 L 836.21 336.66 L 836.64 318.15 L 837.07 364.42 L 837.50 343.27 L 837.93 368.39 L 838.36 322.11 L 838.79 364.42 L 839.22 357.81 L 839.66 385.58 L 840.09 389.54 L 840.52 318.15 L 840.95 385.58 L 841.38 347.24 L 841.81 378.97 L 842.24 343.27 L 842.67 328.73 L 843.10 396.15 L 843.53 402.76 L 843.97 389.54 L 844.40 396.15 L 844.83 402.76 L 845.26 378.97 L 845.69 413.34 L 846.12 385.58 L 846.55 375.00 L 846.98 368.39 L 847.84 413.34 L 848.28 413.34 L 848.71 389.54 L 849.14 413.34 L 849.57 396.15 L 850.00 385.58 L 850.43 396.15 L 850.86 410.70 L 851.29 413.34 L 851.72 343.27 L 852.16 389.54 L 852.59 438.46 L 853.02 425.24 L 853.45 378.97 L 853.88 357.81 L 854.31 400.12 L 854.74 357.81 L 855.17 389.54 L 855.60 353.85 L 856.03 400.12 L 856.47 400.12 L 856.90 368.39 L 857.33 347.24 L 857.76 435.82 L 858.19 385.58 L 858.62 364.42 L 859.05 368.39 L 859.48 364.42 L 859.91 364.42 L 860.34 385.58 L 860.78 328.73 L 861.21 378.97 L 861.64 378.97 L 862.07 396.15 L 862.50 368.39 L 862.93 402.76 L 863.36 389.54 L 863.79 336.66 L 864.22 336.66 L 864.66 343.27 L 865.09 332.69 L 865.52 343.27 L 865.95 353.85 L 866.38 364.42 L 866.81 353.85 L 867.24 343.27 L 867.67 357.81 L 868.10 343.27 L 868.53 336.66 L 868.97 389.54 L 869.83 364.42 L 870.26 368.39 L 870.69 347.24 L 871.12 368.39 L 871.55 332.69 L 871.98 357.81 L 872.41 332.69 L 872.84 389.54 L 873.28 343.27 L 873.71 364.42 L 874.14 357.81 L 874.57 364.42 L 875.00 364.42 L 875.43 368.39 L 875.86 307.57 L 876.29 413.34 L 876.72 378.97 L 877.16 353.85 L 877.59 336.66 L 878.02 375.00 L 878.45 375.00 L 878.88 353.85 L 879.31 353.85 L 879.74 389.54 L 880.17 385.58 L 880.60 396.15 L 881.03 396.15 L 881.47 375.00 L 881.90 427.88 L 882.33 410.70 L 882.76 364.42 L 883.19 378.97 L 883.62 400.12 L 884.05 413.34 L 884.48 396.15 L 884.91 378.97 L 885.34 322.11 L 885.78 400.12 L 886.21 389.54 L 886.64 389.54 L 887.07 410.70 L 887.50 400.12 L 887.93 332.69 L 888.36 413.34 L 888.79 375.00 L 889.22 402.76 L 889.66 410.70 L 890.09 368.39 L 890.52 364.42 L 890.95 396.15 L 891.81 368.39 L 892.24 375.00 L 892.67 368.39 L 893.10 396.15 L 893.53 357.81 L 893.97 385.58 L 894.40 364.42 L 894.83 375.00 L 895.26 364.42 L 895.69 389.54 L 896.12 343.27 L 896.55 364.42 L 896.98 375.00 L 897.41 385.58 L 897.84 364.42 L 898.28 357.81 L 898.71 332.69 L 899.14 385.58 L 899.57 425.24 L 900.00 347.24 L 900.43 357.81 L 900.86 347.24 L 901.29 357.81 L 901.72 389.54 L 902.16 343.27 L 902.59 328.73 L 903.02 385.58 L 903.45 353.85 L 903.88 318.15 L 904.31 353.85 L 904.74 347.24 L 905.17 364.42 L 905.60 322.11 L 906.03 400.12 L 906.47 322.11 L 906.90 353.85 L 907.33 322.11 L 907.76 307.57 L 908.19 318.15 L 908.62 328.73 L 909.05 332.69 L 909.48 322.11 L 909.91 336.66 L 910.34 343.27 L 910.78 332.69 L 911.21 357.81 L 911.64 318.15 L 912.07 332.69 L 912.50 328.73 L 912.93 275.84 L 913.79 273.20 L 914.22 297.00 L 914.66 347.24 L 915.09 332.69 L 915.52 300.96 L 915.95 311.54 L 916.38 318.15 L 916.81 307.57 L 917.24 307.57 L 917.67 378.97 L 918.10 318.15 L 918.53 347.24 L 918.97 273.20 L 919.40 328.73 L 919.83 300.96 L 920.26 297.00 L 920.69 233.53 L 921.12 273.20 L 921.55 297.00 L 921.98 262.62 L 922.41 318.15 L 922.84 318.15 L 923.28 286.42 L 923.71 233.53 L 924.14 273.20 L 924.57 262.62 L 925.00 286.42 L 925.43 222.96 L 925.86 265.26 L 926.29 273.20 L 926.72 318.15 L 927.16 212.38 L 927.59 220.31 L 928.02 252.04 L 928.45 222.96 L 928.88 212.38 L 929.31 275.84 L 929.74 311.54 L 930.17 286.42 L 930.60 275.84 L 931.03 244.11 L 931.47 262.62 L 931.90 286.42 L 932.33 209.74 L 932.76 275.84 L 933.19 252.04 L 933.62 212.38 L 934.05 233.53 L 934.48 212.38 L 934.91 275.84 L 935.78 184.61 L 936.21 178.00 L 936.64 222.96 L 937.07 220.31 L 937.50 163.46 L 937.93 220.31 L 938.36 262.62 L 938.79 178.00 L 939.22 212.38 L 939.66 174.04 L 940.09 262.62 L 940.52 286.42 L 940.95 184.61 L 941.38 222.96 L 941.81 265.26 L 942.24 220.31 L 942.67 222.96 L 943.10 286.42 L 943.53 244.11 L 943.97 273.20 L 944.40 300.96 L 944.83 244.11 L 945.26 279.81 L 945.69 244.11 L 946.12 244.11 L 946.55 262.62 L 946.98 252.04 L 947.41 254.69 L 947.84 275.84 L 948.28 244.11 L 948.71 254.69 L 949.14 311.54 L 949.57 265.26 L 950.00 311.54 L 950.43 332.69 L 950.86 222.96 L 951.29 279.81 L 951.72 297.00 L 952.16 307.57 L 952.59 300.96 L 953.02 307.57 L 953.45 300.96 L 953.88 311.54 L 954.31 322.11 L 954.74 332.69 L 955.17 265.26 L 955.60 290.38 L 956.03 332.69 L 956.47 353.85 L 956.90 322.11 L 957.76 322.11 L 958.19 254.69 L 958.62 311.54 L 959.05 336.66 L 959.48 286.42 L 959.91 300.96 L 960.34 322.11 L 960.78 273.20 L 961.21 364.42 L 961.64 290.38 L 962.07 328.73 L 962.50 353.85 L 962.93 318.15 L 963.36 275.84 L 963.79 322.11 L 964.22 297.00 L 964.66 328.73 L 965.09 311.54 L 965.52 297.00 L 965.95 286.42 L 966.38 328.73 L 966.81 318.15 L 967.24 307.57 L 967.67 275.84 L 968.10 300.96 L 968.53 297.00 L 968.97 297.00 L 969.40 300.96 L 969.83 286.42 L 970.26 244.11 L 970.69 265.26 L 971.12 273.20 L 971.55 286.42 L 971.98 241.47 L 972.41 262.62 L 972.84 318.15 L 973.28 265.26 L 973.71 275.84 L 974.14 300.96 L 974.57 273.20 L 975.00 279.81 L 975.43 286.42 L 975.86 300.96 L 976.29 275.84 L 976.72 328.73 L 977.16 290.38 L 977.59 300.96 L 978.02 273.20 L 978.45 290.38 L 978.88 275.84 L 979.74 252.04 L 980.17 275.84 L 980.60 318.15 L 981.03 265.26 L 981.47 286.42 L 981.90 279.81 L 982.33 222.96 L 982.76 241.47 L 983.19 275.84 L 983.62 244.11 L 984.05 241.47 L 984.48 286.42 L 984.91 222.96 L 985.34 212.38 L 985.78 244.11 L 986.21 275.84 L 986.64 262.62 L 987.07 265.26 L 987.50 307.57 L 987.93 265.26 L 988.36 273.20 L 988.79 241.47 L 989.22 273.20 L 989.66 233.53 L 990.09 195.19 L 990.52 273.20 L 990.95 279.81 L 991.38 286.42 L 991.81 254.69 L 992.24 252.04 L 992.67 273.20 L 993.10 262.62 L 993.53 241.47 L 993.97 233.53 L 994.40 275.84 L 994.83 230.89 L 995.26 212.38 L 995.69 188.58 L 996.12 222.96 L 996.55 265.26 L 996.98 222.96 L 997.41 252.04 L 997.84 199.16 L 998.28 220.31 L 998.71 174.04 L 999.14 188.58 L 999.57 209.74 L 1000.00 212.38 L 1000.43 212.38 L 1000.86 184.61 L 1001.72 188.58 L 1002.16 188.58 L 1002.59 199.16 L 1003.02 205.77 L 1003.45 230.89 L 1003.88 241.47 L 1004.31 230.89 L 1004.74 244.11 L 1005.17 195.19 L 1005.60 233.53 L 1006.03 195.19 L 1006.47 212.38 L 1006.90 265.26 L 1007.33 244.11 L 1007.76 220.31 L 1008.19 244.11 L 1008.62 174.04 L 1009.05 244.11 L 1009.48 142.31 L 1009.91 167.43 L 1010.34 205.77 L 1010.78 156.85 L 1011.21 156.85 L 1011.64 199.16 L 1012.07 167.43 L 1012.50 212.38 L 1012.93 152.88 L 1013.36 188.58 L 1013.79 199.16 L 1014.22 156.85 L 1014.66 163.46 L 1015.09 178.00 L 1015.52 205.77 L 1015.95 212.38 L 1016.38 188.58 L 1016.81 220.31 L 1017.24 195.19 L 1017.67 174.04 L 1018.10 199.16 L 1018.53 195.19 L 1018.97 174.04 L 1019.40 156.85 L 1019.83 212.38 L 1020.26 205.77 L 1020.69 222.96 L 1021.12 178.00 L 1021.55 178.00 L 1021.98 127.76 L 1022.41 195.19 L 1022.84 163.46 L 1023.71 209.74 L 1024.14 178.00 L 1024.57 184.61 L 1025.00 209.74 L 1025.43 199.16 L 1025.86 265.26 L 1026.29 212.38 L 1026.72 205.77 L 1027.16 205.77 L 1027.59 199.16 L 1028.02 209.74 L 1028.45 167.43 L 1028.88 199.16 L 1029.31 156.85 L 1029.74 209.74 L 1030.17 209.74 L 1030.60 230.89 L 1031.03 142.31 L 1031.47 199.16 L 1031.90 178.00 L 1032.33 178.00 L 1032.76 142.31 L 1033.19 230.89 L 1033.62 220.31 L 1034.05 233.53 L 1034.48 241.47 L 1034.91 212.38 L 1035.34 167.43 L 1035.78 205.77 L 1036.21 212.38 L 1036.64 212.38 L 1037.07 222.96 L 1037.50 199.16 L 1037.93 195.19 L 1038.36 220.31 L 1038.79 244.11 L 1039.22 230.89 L 1039.66 195.19 L 1040.09 222.96 L 1040.52 254.69 L 1040.95 212.38 L 1041.38 220.31 L 1041.81 167.43 L 1042.24 152.88 L 1042.67 205.77 L 1043.10 184.61 L 1043.53 178.00 L 1043.97 195.19 L 1044.40 195.19 L 1044.83 163.46 L 1045.69 205.77 L 1046.12 230.89 L 1046.55 174.04 L 1046.98 174.04 L 1047.41 146.27 L 1047.84 156.85 L 1048.28 167.43 L 1048.71 100.00 L 1049.14 117.19 L 1049.57 142.31 L 1050.00 131.73"></path>
	</g>
	<g class="poloto_legend poloto_imgs poloto_line poloto0 poloto_stroke"><line x1="1080" x2="1130" y1="81.25" y2="81.25"></line></g>
	<text class="poloto_legend poloto_text poloto_line poloto0" x="1075" y="100">Temperature</text>
	<text class="poloto_text poloto_name poloto_title" x="600.00" y="37.50">Temperature</text>
	<text class="poloto_text poloto_name poloto_x" x="600.00" y="731.25"></text>
	<text class="poloto_text poloto_name poloto_y" x="37.50" y="375.00" transform="rotate(-90,37.50,375.00)"></text>
	<text class="poloto_text poloto_where poloto_x" x="660.00" y="70.00">ยน2023-03-08 18:58:00 UTC in Minutes</text>
	<text class="poloto_text poloto_ticks poloto_y">
		<tspan x="135.00" y="611.66">22.20</tspan>
		<tspan x="135.00" y="545.55">22.25</tspan>
		<tspan x="135.00" y="479.45">22.30</tspan>
		<tspan x="135.00" y="413.34">22.35</tspan>
		<tspan x="135.00" y="347.24">22.40</tspan>
		<tspan x="135.00" y="281.13">22.45</tspan>
		<tspan x="135.00" y="215.02">22.50</tspan>
		<tspan x="135.00" y="148.92">22.55</tspan>
	</text>
	<g class="poloto_imgs poloto_ticks poloto_y">
		<line x1="150.00" x2="144.00" y1="611.66" y2="611.66"></line>
		<line x1="150.00" x2="144.00" y1="545.55" y2="545.55"></line>
		<line x1="150.00" x2="144.00" y1="479.45" y2="479.45"></line>
		<line x1="150.00" x2="144.00" y1="413.34" y2="413.34"></line>
		<line x1="150.00" x2="144.00" y1="347.24" y2="347.24"></line>
		<line x1="150.00" x2="144.00" y1="281.13" y2="281.13"></line>
		<line x1="150.00" x2="144.00" y1="215.02" y2="215.02"></line>
		<line x1="150.00" x2="144.00" y1="148.92" y2="148.92"></line>
	</g>
	<g class="poloto_grid poloto_y">
		<line x1="150.00" x2="1050.00" y1="611.66" y2="611.66"></line>
		<line x1="150.00" x2="1050.00" y1="545.55" y2="545.55"></line>
		<line x1="150.00" x2="1050.00" y1="479.45" y2="479.45"></line>
		<line x1="150.00" x2="1050.00" y1="413.34" y2="413.34"></line>
		<line x1="150.00" x2="1050.00" y1="347.24" y2="347.24"></line>
		<line x1="150.00" x2="1050.00" y1="281.13" y2="281.13"></line>
		<line x1="150.00" x2="1050.00" y1="215.02" y2="215.02"></line>
		<line x1="150.00" x2="1050.00" y1="148.92" y2="148.92"></line>
	</g>
	<text class="poloto_text poloto_ticks poloto_x">
		<tspan x="181.47" y="680.00">18:58ยน</tspan>
		<tspan x="233.19" y="680.00">19:00</tspan>
		<tspan x="284.91" y="680.00">19:02</tspan>
		<tspan x="336.64" y="680.00">19:04</tspan>
		<tspan x="388.36" y="680.00">19:06</tspan>
		<tspan x="440.09" y="680.00">19:08</tspan>
		<tspan x="491.81" y="680.00">19:10</tspan>
		<tspan x="543.53" y="680.00">19:12</tspan>
		<tspan x="595.26" y="680.00">19:14</tspan>
		<tspan x="646.98" y="680.00">19:16</tspan>
		<tspan x="698.71" y="680.00">19:18</tspan>
		<tspan x="750.43" y="680.00">19:20</tspan>
		<tspan x="802.16" y="680.00">19:22</tspan>
		<tspan x="853.88" y="680.00">19:24</tspan>
		<tspan x="905.60" y="680.00">19:26</tspan>
		<tspan x="957.33" y="680.00">19:28</tspan>
		<tspan x="1009.05" y="680.00">19:30</tspan>
	</text>
	<g class="poloto_imgs poloto_ticks poloto_x">
		<line x1="181.47" x2="181.47" y1="650.00" y2="655.00"></line>
		<line x1="233.19" x2="233.19" y1="650.00" y2="655.00"></line>
		<line x1="284.91" x2="284.91" y1="650.00" y2="655.00"></line>
		<line x1="336.64" x2="336.64" y1="650.00" y2="655.00"></line>
		<line x1="388.36" x2="388.36" y1="650.00" y2="655.00"></line>
		<line x1="440.09" x2="440.09" y1="650.00" y2="655.00"></line>
		<line x1="491.81" x2="491.81" y1="650.00" y2="655.00"></line>
		<line x1="543.53" x2="543.53" y1="650.00" y2="655.00"></line>
		<line x1="595.26" x2="595.26" y1="650.00" y2="655.00"></line>
		<line x1="646.98" x2="646.98" y1="650.00" y2="655.00"></line>
		<line x1="698.71" x2="698.71" y1="650.00" y2="655.00"></line>
		<line x1="750.43" x2="750.43" y1="650.00" y2="655.00"></line>
		<line x1="802.16" x2="802.16" y1="650.00" y2="655.00"></line>
		<line x1="853.88" x2="853.88" y1="650.00" y2="655.00"></line>
		<line x1="905.60" x2="905.60" y1="650.00" y2="655.00"></line>
		<line x1="957.33" x2="957.33" y1="650.00" y2="655.00"></line>
		<line x1="1009.05" x2="1009.05" y1="650.00" y2="655.00"></line>
	</g>
	<g class="poloto_grid poloto_x">
		<line x1="181.47" x2="181.47" y1="650.00" y2="100.00"></line>
		<line x1="233.19" x2="233.19" y1="650.00" y2="100.00"></line>
		<line x1="284.91" x2="284.91" y1="650.00" y2="100.00"></line>
		<line x1="336.64" x2="336.64" y1="650.00" y2="100.00"></line>
		<line x1="388.36" x2="388.36" y1="650.00" y2="100.00"></line>
		<line x1="440.09" x2="440.09" y1="650.00" y2="100.00"></line>
		<line x1="491.81" x2="491.81" y1="650.00" y2="100.00"></line>
		<line x1="543.53" x2="543.53" y1="650.00" y2="100.00"></line>
		<line x1="595.26" x2="595.26" y1="650.00" y2="100.00"></line>
		<line x1="646.98" x2="646.98" y1="650.00" y2="100.00"></line>
		<line x1="698.71" x2="698.71" y1="650.00" y2="100.00"></line>
		<line x1="750.43" x2="750.43" y1="650.00" y2="100.00"></line>
		<line x1="802.16" x2="802.16" y1="650.00" y2="100.00"></line>
		<line x1="853.88" x2="853.88" y1="650.00" y2="100.00"></line>
		<line x1="905.60" x2="905.60" y1="650.00" y2="100.00"></line>
		<line x1="957.33" x2="957.33" y1="650.00" y2="100.00"></line>
		<line x1="1009.05" x2="1009.05" y1="650.00" y2="100.00"></line>
	</g>
	<path class="poloto_imgs poloto_ticks poloto_x" d=" M 150.00 650.00 L 1050.00 650.00"></path>
	<path class="poloto_imgs poloto_ticks poloto_y" style="stroke-dasharray:6.610571103693651;stroke-dashoffset:-38.341937791148666;" d=" M 150.00 650.00 L 150.00 100.00"></path>
</svg>